<svg xmlns="http://www.w3.org/2000/svg" width="24" height="24" viewBox="48 -44 215 215">
  <!-- Rounded square border -->
  <path fill="none" stroke="currentColor" stroke-width="8" d="m 206.667,-33.658 c 24.552,0.033 44.458,19.923 44.491,44.491 V 114.167 c -0.033,24.552 -19.923,44.458 -44.491,44.491 H 103.333 C 78.781,158.625 58.875,138.735 58.842,114.167 V 10.833 c 0.033,-24.552 19.923,-44.458 44.491,-44.491 z"/>
  <!-- Circle -->
  <path fill="none" stroke="currentColor" stroke-width="8" d="m 155.694,122.053 c -32.901,0 -59.553,-26.668 -59.553,-59.553 0,-32.885 26.652,-59.553 59.553,-59.553 32.885,0 59.553,26.668 59.553,59.553 0,32.885 -26.668,59.553 -59.553,59.553 z"/>
  <!-- Code editor box -->
  <rect x="115.5" y="33.8" width="80.4" height="57.4" rx="3.6" fill="none" stroke="currentColor" stroke-width="8"/>
  <!-- Forward slash -->
  <line x1="158" y1="48" x2="152" y2="77" stroke="currentColor" stroke-width="8" stroke-linecap="round"/>
  <!-- Right bracket > -->
  <polyline points="167,54 178,62.5 167,71" fill="none" stroke="currentColor" stroke-width="8" stroke-linecap="round" stroke-linejoin="round"/>
  <!-- Left bracket < -->
  <polyline points="144,54 133,62.5 144,71" fill="none" stroke="currentColor" stroke-width="8" stroke-linecap="round" stroke-linejoin="round"/>
</svg>
