<svg xmlns="http://www.w3.org/2000/svg" width="128" height="128" viewBox="0 0 128 128">
  <rect width="128" height="128" rx="16" fill="#1a73e8"/>
  <g fill="white">
    <!-- Cloud shape -->
    <path d="M88 68c0-11-9-20-20-20-1.5 0-3 .2-4.4.5C60.5 40.2 52.8 34 44 34c-11 0-20 9-20 20 0 .7 0 1.4.1 2.1C17.5 58.5 12 65.3 12 73c0 9.4 7.6 17 17 17h56c8.3 0 15-6.7 15-15 0-3.5-1.2-6.7-3.2-9.2.1-.9.2-1.8.2-2.8z" transform="translate(8,-4) scale(0.85)"/>
    <!-- Terminal cursor -->
    <rect x="42" y="82" width="44" height="4" rx="2"/>
    <rect x="42" y="90" width="28" height="4" rx="2"/>
    <rect x="42" y="98" width="36" height="4" rx="2"/>
    <!-- Connection dots -->
    <circle cx="34" cy="108" r="3"/>
    <circle cx="94" cy="108" r="3"/>
    <line x1="37" y1="108" x2="91" y2="108" stroke="white" stroke-width="2" stroke-dasharray="4,3"/>
  </g>
</svg>
